<?xml version="1.0" encoding="UTF-8" standalone="no"?>
<!-- Created with Inkscape (http://www.inkscape.org/) -->

<svg
   xmlns:dc="http://purl.org/dc/elements/1.1/"
   xmlns:cc="http://creativecommons.org/ns#"
   xmlns:rdf="http://www.w3.org/1999/02/22-rdf-syntax-ns#"
   xmlns:svg="http://www.w3.org/2000/svg"
   xmlns="http://www.w3.org/2000/svg"
   xmlns:inkscape="http://www.inkscape.org/namespaces/inkscape"
   version="1.1"
   width="744.09448"
   height="1052.3622"
   id="svg2998">
  <defs
     id="defs3000">
    <inkscape:path-effect
       effect="skeletal"
       id="path-effect3046" />
    <inkscape:path-effect
       effect="skeletal"
       id="path-effect3042" />
    <inkscape:path-effect
       effect="skeletal"
       id="path-effect3036" />
    <inkscape:path-effect
       effect="spiro"
       id="path-effect3034" />
    <inkscape:path-effect
       effect="skeletal"
       id="path-effect3030" />
    <inkscape:path-effect
       effect="spiro"
       id="path-effect3028" />
    <inkscape:path-effect
       effect="skeletal"
       id="path-effect3024" />
    <inkscape:path-effect
       effect="spiro"
       id="path-effect3022" />
  </defs>
  <metadata
     id="metadata3003">
    <rdf:RDF>
      <cc:Work
         rdf:about="">
        <dc:format>image/svg+xml</dc:format>
        <dc:type
           rdf:resource="http://purl.org/dc/dcmitype/StillImage" />
        <dc:title></dc:title>
      </cc:Work>
    </rdf:RDF>
  </metadata>
  <g
     id="layer1">
    <g
       transform="translate(0.47835922,0.37835693)"
       id="g3109">
      <g
         id="g3132">
        <path
           d="m 70.714739,37.863392 44.615031,0 c 5.65885,0 10.21453,4.422569 10.21453,9.916074 l 0,43.311433 c 0,5.493505 -4.55568,9.916071 -10.21453,9.916071 l -44.615031,0 c -5.658849,0 -10.214529,-4.422566 -10.214529,-9.916071 l 0,-43.311433 c 0,-5.493505 4.55568,-9.916074 10.214529,-9.916074 z"
           id="rect3008"
           style="fill:none;stroke:#000000;stroke-width:1.0064193;stroke-linecap:round;stroke-linejoin:round;stroke-miterlimit:4;stroke-opacity:1" />
        <path
           d="m 72.781466,40.983826 40.445074,0 c 5.12994,0 9.25982,3.982238 9.25982,8.928785 l 0,38.999149 c 0,4.946547 -4.12988,8.928786 -9.25982,8.928786 l -40.445074,0 c -5.129943,0 -9.259825,-3.982239 -9.259825,-8.928786 l 0,-38.999149 c 0,-4.946547 4.129882,-8.928785 9.259825,-8.928785 z"
           id="rect3016"
           style="fill:none;stroke:#000000;stroke-width:0.90928012;stroke-linecap:round;stroke-linejoin:round;stroke-miterlimit:4;stroke-opacity:1" />
        <path
           d="m 130,73.862183 6.5,-13 6.5,13 z"
           id="path3048"
           style="fill:none;stroke:#000000;stroke-width:1.29999995px;stroke-linecap:butt;stroke-linejoin:miter;stroke-opacity:1" />
      </g>
    </g>
  </g>
</svg>
