<?xml version="1.0" encoding="UTF-8" standalone="no"?>
<!-- Created with Inkscape (http://www.inkscape.org/) -->

<svg
   xmlns:dc="http://purl.org/dc/elements/1.1/"
   xmlns:cc="http://creativecommons.org/ns#"
   xmlns:rdf="http://www.w3.org/1999/02/22-rdf-syntax-ns#"
   xmlns:svg="http://www.w3.org/2000/svg"
   xmlns="http://www.w3.org/2000/svg"
   xmlns:inkscape="http://www.inkscape.org/namespaces/inkscape"
   version="1.1"
   width="744.09448"
   height="1052.3622"
   id="svg2998">
  <defs
     id="defs3000">
    <inkscape:path-effect
       effect="skeletal"
       id="path-effect3046" />
    <inkscape:path-effect
       effect="skeletal"
       id="path-effect3042" />
    <inkscape:path-effect
       effect="skeletal"
       id="path-effect3036" />
    <inkscape:path-effect
       effect="spiro"
       id="path-effect3034" />
    <inkscape:path-effect
       effect="skeletal"
       id="path-effect3030" />
    <inkscape:path-effect
       effect="spiro"
       id="path-effect3028" />
    <inkscape:path-effect
       effect="skeletal"
       id="path-effect3024" />
    <inkscape:path-effect
       effect="spiro"
       id="path-effect3022" />
  </defs>
  <metadata
     id="metadata3003">
    <rdf:RDF>
      <cc:Work
         rdf:about="">
        <dc:format>image/svg+xml</dc:format>
        <dc:type
           rdf:resource="http://purl.org/dc/dcmitype/StillImage" />
        <dc:title></dc:title>
      </cc:Work>
    </rdf:RDF>
  </metadata>
  <g
     id="layer1">
    <g
       transform="translate(0.47835922,0.37835693)"
       id="g3109">
      <path
         d="m 130,73.862183 c 2.16667,-4.333333 4.33333,-8.666667 6.5,-13 2.16667,4.333333 4.33333,8.666667 6.5,13 -4.33333,0 -8.66667,0 -13,0 z M 70.709141,37.871643 c -5.776051,-0.209819 -10.879631,5.190956 -10.21875,10.960399 0.03474,14.424411 -0.06969,28.853328 0.05259,43.274905 0.447545,5.548437 6.054467,9.509753 11.431138,8.889693 14.801939,-0.0335 29.607971,0.0673 44.407331,-0.0509 5.3883,-0.35805 9.76242,-5.531052 9.17144,-10.909496 -0.0347,-14.424411 0.0697,-28.853328 -0.0526,-43.274905 -0.44755,-5.548437 -6.05447,-9.509755 -11.43114,-8.889696 -14.45334,0 -28.90668,0 -43.36002,0 z m 2.0625,3.125 c 13.805559,0.03007 27.614749,-0.0604 41.418019,0.04568 4.90397,0.310641 8.87599,5.023726 8.30073,9.914722 -0.0313,12.953295 0.0628,25.910662 -0.0475,38.861389 -0.41259,5.072681 -5.5753,8.615304 -10.46746,8.021962 -13.383891,-0.03028 -26.77147,0.06083 -40.153039,-0.04603 -4.910854,-0.320628 -8.87166,-5.051988 -8.30073,-9.945621 0.03127,-12.953178 -0.06281,-25.91043 0.04752,-38.861038 0.403285,-4.567316 4.688188,-8.088478 9.202477,-7.991063 z"
         id="path3048"
         style="fill:none;stroke:#000000;stroke-width:1.29999995px;stroke-linecap:butt;stroke-linejoin:miter;stroke-opacity:1" />
    </g>
  </g>
</svg>
