<?xml version="1.0" encoding="UTF-8" standalone="no"?>
<!-- Created with Inkscape (http://www.inkscape.org/) -->

<svg
   xmlns:dc="http://purl.org/dc/elements/1.1/"
   xmlns:cc="http://creativecommons.org/ns#"
   xmlns:rdf="http://www.w3.org/1999/02/22-rdf-syntax-ns#"
   xmlns:svg="http://www.w3.org/2000/svg"
   xmlns="http://www.w3.org/2000/svg"
   xmlns:inkscape="http://www.inkscape.org/namespaces/inkscape"
   version="1.1"
   width="744.09448"
   height="1052.3622"
   id="svg2998">
  <defs
     id="defs3000">
    <inkscape:path-effect
       effect="skeletal"
       id="path-effect3046" />
    <inkscape:path-effect
       effect="skeletal"
       id="path-effect3042" />
    <inkscape:path-effect
       effect="skeletal"
       id="path-effect3036" />
    <inkscape:path-effect
       effect="spiro"
       id="path-effect3034" />
    <inkscape:path-effect
       effect="skeletal"
       id="path-effect3030" />
    <inkscape:path-effect
       effect="spiro"
       id="path-effect3028" />
    <inkscape:path-effect
       effect="skeletal"
       id="path-effect3024" />
    <inkscape:path-effect
       effect="spiro"
       id="path-effect3022" />
  </defs>
  <metadata
     id="metadata3003">
    <rdf:RDF>
      <cc:Work
         rdf:about="">
        <dc:format>image/svg+xml</dc:format>
        <dc:type
           rdf:resource="http://purl.org/dc/dcmitype/StillImage" />
        <dc:title></dc:title>
      </cc:Work>
    </rdf:RDF>
  </metadata>
  <g
     id="layer1">
    <g
       transform="translate(0.47835922,0.37835693)"
       id="g3109">
      <path
         d="m 130,73.862183 6.5,-13 6.5,13 z M 70.709141,37.871643 c -5.658849,0 -10.21875,4.412745 -10.21875,9.90625 l 0,43.3125 c 0,5.493505 4.559901,9.906247 10.21875,9.906247 l 44.624999,0 c 5.65885,0 10.21875,-4.412742 10.21875,-9.906247 l 0,-43.3125 c 0,-5.493505 -4.5599,-9.90625 -10.21875,-9.90625 l -44.624999,0 z m 2.0625,3.125 40.468749,0 c 5.12994,0 9.25,3.959703 9.25,8.90625 l 0,39 c 0,4.946547 -4.12006,8.9375 -9.25,8.9375 l -40.468749,0 c -5.129943,0 -9.25,-3.990953 -9.25,-8.9375 l 0,-39 c 0,-4.946547 4.120057,-8.90625 9.25,-8.90625 z"
         id="path3048"
         style="fill:none;stroke:#000000;stroke-width:1.29999995px;stroke-linecap:butt;stroke-linejoin:miter;stroke-opacity:1" />
    </g>
  </g>
</svg>
