<?xml version="1.0" encoding="UTF-8" standalone="no"?>
<!-- Created with Inkscape (http://www.inkscape.org/) -->

<svg
   xmlns:dc="http://purl.org/dc/elements/1.1/"
   xmlns:cc="http://creativecommons.org/ns#"
   xmlns:rdf="http://www.w3.org/1999/02/22-rdf-syntax-ns#"
   xmlns:svg="http://www.w3.org/2000/svg"
   xmlns="http://www.w3.org/2000/svg"
   xmlns:sodipodi="http://sodipodi.sourceforge.net/DTD/sodipodi-0.dtd"
   xmlns:inkscape="http://www.inkscape.org/namespaces/inkscape"
   width="744.09448819"
   height="1052.3622047"
   id="svg2"
   version="1.1"
   inkscape:version="0.48.2 r9819"
   sodipodi:docname="test-move-num-7.svg">
  <defs
     id="defs4" />
  <sodipodi:namedview
     id="base"
     pagecolor="#ffffff"
     bordercolor="#666666"
     borderopacity="1.0"
     inkscape:pageopacity="0.0"
     inkscape:pageshadow="2"
     inkscape:zoom="1.979899"
     inkscape:cx="100.1104"
     inkscape:cy="979.27609"
     inkscape:document-units="px"
     inkscape:current-layer="layer1"
     showgrid="false"
     inkscape:window-width="1094"
     inkscape:window-height="608"
     inkscape:window-x="4"
     inkscape:window-y="0"
     inkscape:window-maximized="0"
     showguides="true"
     inkscape:guide-bbox="true" />
  <metadata
     id="metadata7">
    <rdf:RDF>
      <cc:Work
         rdf:about="">
        <dc:format>image/svg+xml</dc:format>
        <dc:type
           rdf:resource="http://purl.org/dc/dcmitype/StillImage" />
        <dc:title></dc:title>
      </cc:Work>
    </rdf:RDF>
  </metadata>
  <g
     inkscape:label="Layer 1"
     inkscape:groupmode="layer"
     id="layer1">
    <path
       style="fill:none;stroke:#000000;stroke-width:0.63544798;stroke-linecap:round;stroke-linejoin:miter;stroke-miterlimit:43.89999008;stroke-opacity:1"
       d="M 121.40625 65.5625 C 120.45721 65.5625 119.6875 66.18524 119.6875 66.96875 L 119.6875 68.0625 C 119.6875 68.846 120.45721 69.46875 121.40625 69.46875 L 178.5625 69.46875 C 179.51154 69.46875 180.28125 68.846 180.28125 68.0625 L 180.28125 66.96875 C 180.28125 66.18524 179.51154 65.5625 178.5625 65.5625 L 121.40625 65.5625 z M 121.40625 103.4375 C 120.45721 103.4375 119.6875 104.06024 119.6875 104.84375 L 119.6875 105.9375 C 119.6875 106.721 120.45721 107.375 121.40625 107.375 L 178.5625 107.375 C 179.51154 107.375 180.28125 106.721 180.28125 105.9375 L 180.28125 104.84375 C 180.28125 104.06024 179.51154 103.4375 178.5625 103.4375 L 121.40625 103.4375 z "
       id="rect3818" />
  </g>
</svg>
